<?xml version="1.0" standalone="no"?><!-- Generator: Gravit.io --><svg xmlns="http://www.w3.org/2000/svg" xmlns:xlink="http://www.w3.org/1999/xlink" style="isolation:isolate" viewBox="0 0 16 16" width="16" height="16"><defs><clipPath id="_clipPath_QRdoNHloerJpN4vZ6JVLgavR2ASxGQdd"><rect width="16" height="16"/></clipPath></defs><g clip-path="url(#_clipPath_QRdoNHloerJpN4vZ6JVLgavR2ASxGQdd)"><path d=" M 14 5 L 13 5 L 13 1 C 13 0.448 12.552 0 12 0 L 4 0 C 3.448 0 3 0.448 3 1 L 3 5 L 2 5 C 0.895 5 0 5.895 0 7 L 0 12 L 3 12 L 3 15 C 3 15.552 3.448 16 4 16 L 12 16 C 12.552 16 13 15.552 13 15 L 13 12 L 16 12 L 16 7 C 16 5.895 15.105 5 14 5 Z  M 2.5 8 C 2.224 8 2 7.776 2 7.5 C 2 7.224 2.224 7 2.5 7 C 2.776 7 3 7.224 3 7.5 C 3 7.776 2.776 8 2.5 8 Z  M 12 15 L 4 15 L 4 10 L 12 10 L 12 15 Z  M 12 5 L 4 5 L 4 1 L 12 1 L 12 5 Z  M 5.5 12 L 9.5 12 C 9.776 12 10 11.776 10 11.5 C 10 11.224 9.776 11 9.5 11 L 5.5 11 C 5.224 11 5 11.224 5 11.5 C 5 11.776 5.224 12 5.5 12 Z  M 5.5 14 L 10.5 14 C 10.776 14 11 13.776 11 13.5 C 11 13.224 10.776 13 10.5 13 L 5.5 13 C 5.224 13 5 13.224 5 13.5 C 5 13.776 5.224 14 5.5 14 Z " fill="rgb(209,209,209)"/></g></svg>