<?xml version="1.0" standalone="no"?><!-- Generator: Gravit.io --><svg xmlns="http://www.w3.org/2000/svg" xmlns:xlink="http://www.w3.org/1999/xlink" style="isolation:isolate" viewBox="0 0 16 16" width="16" height="16"><defs><clipPath id="_clipPath_kjhS7xoYVjev8s94jFwbs4cVGsgeviWe"><rect width="16" height="16"/></clipPath></defs><g clip-path="url(#_clipPath_kjhS7xoYVjev8s94jFwbs4cVGsgeviWe)"><path d=" M 6.5 12 C 6.776 12 7 11.776 7 11.5 L 7 5.5 C 7 5.224 6.776 5 6.5 5 C 6.224 5 6 5.224 6 5.5 L 6 11.5 C 6 11.776 6.224 12 6.5 12 Z  M 8.5 12 C 8.776 12 9 11.776 9 11.5 L 9 5.5 C 9 5.224 8.776 5 8.5 5 C 8.224 5 8 5.224 8 5.5 L 8 11.5 C 8 11.776 8.224 12 8.5 12 Z  M 10.5 12 C 10.776 12 11 11.776 11 11.5 L 11 5.5 C 11 5.224 10.776 5 10.5 5 C 10.224 5 10 5.224 10 5.5 L 10 11.5 C 10 11.776 10.224 12 10.5 12 Z " fill="rgb(209,209,209)"/><path d=" M 14 2 L 10.95 2 C 10.713 0.835 9.689 -0.003 8.5 -0.003 C 7.311 -0.003 6.287 0.835 6.05 2 L 3 2 C 2.448 2 2 2.448 2 3 C 2 3.552 2.448 4 3 4 L 3 13 C 3 14.657 4.343 16 6 16 L 11 16 C 12.657 16 14 14.657 14 13 L 14 4 C 14.552 4 15 3.552 15 3 C 15 2.448 14.552 2 14 2 Z  M 8.5 1 C 9.128 1.007 9.685 1.407 9.891 2 L 7.109 2 C 7.315 1.407 7.872 1.007 8.5 1 Z  M 12 13 C 12 13.552 11.552 14 11 14 L 6 14 C 5.448 14 5 13.552 5 13 L 5 4 L 12 4 L 12 13 Z " fill="rgb(209,209,209)"/></g></svg>