<?xml version="1.0" standalone="no"?><!-- Generator: Gravit.io --><svg xmlns="http://www.w3.org/2000/svg" xmlns:xlink="http://www.w3.org/1999/xlink" style="isolation:isolate" viewBox="0 0 16 16" width="16" height="16"><defs><clipPath id="_clipPath_HqbznfiSZu6lftm1bRGQ9FXizI9kOcKp"><rect width="16" height="16"/></clipPath></defs><g clip-path="url(#_clipPath_HqbznfiSZu6lftm1bRGQ9FXizI9kOcKp)"><path d=" M 15.707 14.293 L 10.885 9.471 C 12.7 6.921 12.257 3.406 9.868 1.385 C 7.478 -0.636 3.938 -0.488 1.725 1.725 C -0.488 3.938 -0.636 7.478 1.385 9.868 C 3.406 12.257 6.921 12.7 9.471 10.885 L 14.293 15.707 C 14.685 16.086 15.309 16.081 15.695 15.695 C 16.081 15.309 16.086 14.685 15.707 14.293 Z  M 6 10 C 3.791 10 2 8.209 2 6 C 2 3.791 3.791 2 6 2 C 8.209 2 10 3.791 10 6 C 10 8.209 8.209 10 6 10 Z " fill="rgb(209,209,209)"/></g></svg>