<?xml version="1.0" standalone="no"?><!-- Generator: Gravit.io --><svg xmlns="http://www.w3.org/2000/svg" xmlns:xlink="http://www.w3.org/1999/xlink" style="isolation:isolate" viewBox="0 0 16 16" width="16" height="16"><defs><clipPath id="_clipPath_pxapXd9FviP55xaRJfk0HVdkv4nYYec3"><rect width="16" height="16"/></clipPath></defs><g clip-path="url(#_clipPath_pxapXd9FviP55xaRJfk0HVdkv4nYYec3)"><path d=" M 5 3 L 5 12 C 5 13.657 6.343 15 8 15 C 9.657 15 11 13.657 11 12 L 11 3.5 C 11 3.224 11.224 3 11.5 3 C 11.776 3 12 3.224 12 3.5 L 12 12 C 12 14.209 10.209 16 8 16 C 5.791 16 4 14.209 4 12 L 4 3 C 4 1.343 5.343 0 7 0 C 8.657 0 10 1.343 10 3 L 10 11 C 10 12.105 9.105 13 8 13 C 6.895 13 6 12.105 6 11 L 6 5.5 C 6 5.224 6.224 5 6.5 5 C 6.776 5 7 5.224 7 5.5 L 7 11 C 7 11.552 7.448 12 8 12 C 8.552 12 9 11.552 9 11 L 9 3 C 9 1.895 8.105 1 7 1 C 5.895 1 5 1.895 5 3 Z " fill="rgb(209,209,209)"/></g></svg>