<?xml version="1.0" standalone="no"?><!-- Generator: Gravit.io --><svg xmlns="http://www.w3.org/2000/svg" xmlns:xlink="http://www.w3.org/1999/xlink" style="isolation:isolate" viewBox="0 0 16 16" width="16" height="16"><defs><clipPath id="_clipPath_bQdcCrjvV0EnWz3XdtSTN6AySxi7GzCV"><rect width="16" height="16"/></clipPath></defs><g clip-path="url(#_clipPath_bQdcCrjvV0EnWz3XdtSTN6AySxi7GzCV)"><path d=" M 6.812 9.349 C 5.331 8.381 4.662 6.555 5.167 4.859 C 5.672 3.163 7.231 2.001 9.001 2.001 C 10.77 2.001 12.329 3.163 12.834 4.859 C 13.339 6.555 12.67 8.381 11.189 9.349 C 14.06 10.295 16 12.977 16 16 L 2 16 C 2 12.977 3.94 10.295 6.812 9.349 L 6.812 9.349 Z  M 9 8 C 10.105 8 11 7.105 11 6 C 11 4.895 10.105 4 9 4 C 7.895 4 7 4.895 7 6 C 7 7.105 7.895 8 9 8 Z  M 9 11 C 7.011 11 5.212 12.178 4.416 14 L 13.584 14 C 12.788 12.178 10.989 11 9 11 Z " fill="rgb(209,209,209)"/><path d=" M 4.049 6.7 C 2.607 5.121 2.663 2.687 4.175 1.175 C 5.687 -0.337 8.121 -0.393 9.7 1.049 C 8.144 0.829 6.575 1.353 5.464 2.464 C 4.353 3.575 3.829 5.144 4.049 6.7 Z  M 1.252 14 L 0 14 C 0 11.11 1.75 8.63 4.249 7.561 C 4.427 8.104 4.696 8.606 5.037 9.049 C 3.159 10.121 1.794 11.907 1.252 14 Z " fill="none"/></g></svg>