<?xml version="1.0" standalone="no"?><!-- Generator: Gravit.io --><svg xmlns="http://www.w3.org/2000/svg" xmlns:xlink="http://www.w3.org/1999/xlink" style="isolation:isolate" viewBox="0 0 16 16" width="16" height="16"><defs><clipPath id="_clipPath_4IT1YiiOXyCB4sdTb0rHdlGl4dOuAJzY"><rect width="16" height="16"/></clipPath></defs><g clip-path="url(#_clipPath_4IT1YiiOXyCB4sdTb0rHdlGl4dOuAJzY)"><path d=" M 9.223 7.989 L 13.759 3.453 C 14.084 3.116 14.08 2.582 13.749 2.251 C 13.418 1.92 12.884 1.916 12.547 2.241 L 8.011 6.777 L 3.475 2.241 C 3.138 1.916 2.604 1.92 2.273 2.251 C 1.942 2.582 1.938 3.116 2.263 3.453 L 6.799 7.989 L 2.262 12.526 C 2.039 12.742 1.95 13.06 2.028 13.36 C 2.106 13.66 2.34 13.894 2.64 13.972 C 2.94 14.05 3.258 13.961 3.474 13.738 L 8.011 9.201 L 12.547 13.738 C 12.884 14.063 13.418 14.058 13.749 13.728 C 14.08 13.397 14.084 12.863 13.759 12.526 L 9.223 7.989 Z " fill="rgb(209,209,209)"/></g></svg>