<?xml version="1.0" standalone="no"?><!-- Generator: Gravit.io --><svg xmlns="http://www.w3.org/2000/svg" xmlns:xlink="http://www.w3.org/1999/xlink" style="isolation:isolate" viewBox="0 0 16 16" width="16" height="16"><defs><clipPath id="_clipPath_U4rCLSzFtKP7wbRceA0DNCkrdfxw45td"><rect width="16" height="16"/></clipPath></defs><g clip-path="url(#_clipPath_U4rCLSzFtKP7wbRceA0DNCkrdfxw45td)"><path d=" M 8 2 C 8.552 2 9 2.448 9 3 L 9 8 C 9 8.552 8.552 9 8 9 C 7.448 9 7 8.552 7 8 L 7 3 C 7 2.448 7.448 2 8 2 Z  M 8 13.5 C 7.172 13.5 6.5 12.828 6.5 12 C 6.5 11.172 7.172 10.5 8 10.5 C 8.828 10.5 9.5 11.172 9.5 12 C 9.5 12.828 8.828 13.5 8 13.5 Z " fill="rgb(209,209,209)"/></g></svg>