<?xml version="1.0" standalone="no"?><!-- Generator: Gravit.io --><svg xmlns="http://www.w3.org/2000/svg" xmlns:xlink="http://www.w3.org/1999/xlink" style="isolation:isolate" viewBox="0 0 16 16" width="16" height="16"><defs><clipPath id="_clipPath_mI67nJ4EeQdxbDf2g8t3m9mgBZFxHjDT"><rect width="16" height="16"/></clipPath></defs><g clip-path="url(#_clipPath_mI67nJ4EeQdxbDf2g8t3m9mgBZFxHjDT)"><path d=" M 15 8.758 C 14.402 8.357 13.716 8.107 13 8.028 L 13 2.17 C 14.165 2.582 15 3.693 15 4.999 L 15 8.757 L 15 8.758 Z  M 8.758 15 L 4 15 C 2.343 15 1 13.657 1 12 L 1 5 C 1 3.694 1.835 2.583 3 2.17 L 3 12 C 3 12.552 3.448 13 4 13 L 8.027 13 C 8.109 13.734 8.367 14.416 8.757 15 L 8.758 15 Z  M 6 2 L 10 2 L 10 4 L 6 4 L 6 2 L 6 2 Z " fill="rgb(209,209,209)"/><path d="M 4.5 0 L 4.5 0 C 4.776 0 5 0.224 5 0.5 L 5 3.5 C 5 3.776 4.776 4 4.5 4 L 4.5 4 C 4.224 4 4 3.776 4 3.5 L 4 0.5 C 4 0.224 4.224 0 4.5 0 Z" style="stroke:none;fill:#D1D1D1;stroke-miterlimit:10;"/><path d="M 11.5 0 L 11.5 0 C 11.776 0 12 0.224 12 0.5 L 12 3.5 C 12 3.776 11.776 4 11.5 4 L 11.5 4 C 11.224 4 11 3.776 11 3.5 L 11 0.5 C 11 0.224 11.224 0 11.5 0 Z" style="stroke:none;fill:#D1D1D1;stroke-miterlimit:10;"/><path d=" M 4 7 L 7 7 L 7 10 L 4 10 L 4 7 Z  M 3 5 L 13 5 L 13 6 L 3 6 L 3 5 Z " fill="rgb(209,209,209)"/><path d=" M 12.5 16 C 10.567 16 9 14.433 9 12.5 C 9 10.567 10.567 9 12.5 9 C 14.433 9 16 10.567 16 12.5 C 16 14.433 14.433 16 12.5 16 Z  M 13 12 L 13 10.5 C 13 10.224 12.776 10 12.5 10 C 12.224 10 12 10.224 12 10.5 L 12 12 L 10.5 12 C 10.224 12 10 12.224 10 12.5 C 10 12.776 10.224 13 10.5 13 L 12 13 L 12 14.5 C 12 14.776 12.224 15 12.5 15 C 12.776 15 13 14.776 13 14.5 L 13 13 L 14.5 13 C 14.776 13 15 12.776 15 12.5 C 15 12.224 14.776 12 14.5 12 L 13 12 L 13 12 Z " fill="rgb(209,209,209)"/></g></svg>