<?xml version="1.0" standalone="no"?><!-- Generator: Gravit.io --><svg xmlns="http://www.w3.org/2000/svg" xmlns:xlink="http://www.w3.org/1999/xlink" style="isolation:isolate" viewBox="0 0 16 16" width="16" height="16"><defs><clipPath id="_clipPath_lNchE1E4o4KTpDzHYxlPQNoFjNjJ2nAO"><rect width="16" height="16"/></clipPath></defs><g clip-path="url(#_clipPath_lNchE1E4o4KTpDzHYxlPQNoFjNjJ2nAO)"><path d=" M 7.379 14.207 L 1.879 8.707 C 1.316 8.145 1 7.382 1 6.586 L 1 1 L 6.586 1 C 7.382 1 8.145 1.316 8.707 1.879 L 14.207 7.379 C 15.378 8.55 15.378 10.45 14.207 11.621 L 11.621 14.207 C 10.45 15.378 8.55 15.378 7.379 14.207 Z  M 8.793 12.793 C 9.183 13.183 9.817 13.183 10.207 12.793 L 12.793 10.207 C 13.183 9.817 13.183 9.183 12.793 8.793 L 7.293 3.293 C 7.106 3.105 6.851 3 6.586 3 L 3 3 L 3 6.586 C 3 6.851 3.105 7.106 3.293 7.293 L 8.793 12.793 L 8.793 12.793 Z  M 5 6 C 4.448 6 4 5.552 4 5 C 4 4.448 4.448 4 5 4 C 5.552 4 6 4.448 6 5 C 6 5.552 5.552 6 5 6 Z " fill="rgb(209,209,209)"/></g></svg>