<?xml version="1.0" standalone="no"?><!-- Generator: Gravit.io --><svg xmlns="http://www.w3.org/2000/svg" xmlns:xlink="http://www.w3.org/1999/xlink" style="isolation:isolate" viewBox="0 0 16 16" width="16" height="16"><defs><clipPath id="_clipPath_4tbhd1plCuxm487WmLuEq4fLchAdoQP8"><rect width="16" height="16"/></clipPath></defs><g clip-path="url(#_clipPath_4tbhd1plCuxm487WmLuEq4fLchAdoQP8)"><path d=" M 6 2 L 10 2 L 10 4 L 6 4 L 6 2 L 6 2 Z  M 13 2.17 C 14.165 2.583 15 3.694 15 5 L 15 12 C 15 13.657 13.657 15 12 15 L 4 15 C 2.343 15 1 13.657 1 12 L 1 5 C 1 3.694 1.835 2.583 3 2.17 L 3 12 C 3 12.552 3.448 13 4 13 L 12 13 C 12.552 13 13 12.552 13 12 L 13 2.17 L 13 2.17 Z " fill="rgb(209,209,209)"/><path d="M 4.5 0 L 4.5 0 C 4.776 0 5 0.224 5 0.5 L 5 3.5 C 5 3.776 4.776 4 4.5 4 L 4.5 4 C 4.224 4 4 3.776 4 3.5 L 4 0.5 C 4 0.224 4.224 0 4.5 0 Z" style="stroke:none;fill:#D1D1D1;stroke-miterlimit:10;"/><path d="M 11.5 0 L 11.5 0 C 11.776 0 12 0.224 12 0.5 L 12 3.5 C 12 3.776 11.776 4 11.5 4 L 11.5 4 C 11.224 4 11 3.776 11 3.5 L 11 0.5 C 11 0.224 11.224 0 11.5 0 Z" style="stroke:none;fill:#D1D1D1;stroke-miterlimit:10;"/><path d=" M 3 5 L 13 5 L 13 6 L 3 6 L 3 5 Z " fill="rgb(209,209,209)"/><path d=" M 10.1 7.2 C 10.266 6.979 10.579 6.934 10.8 7.1 C 11.021 7.266 11.066 7.579 10.9 7.8 L 7.9 11.8 C 7.813 11.916 7.68 11.989 7.535 11.999 C 7.391 12.01 7.249 11.957 7.146 11.854 L 5.146 9.854 C 4.95 9.658 4.95 9.342 5.146 9.146 C 5.342 8.95 5.658 8.95 5.854 9.146 L 7.446 10.739 L 10.1 7.2 L 10.1 7.2 Z " fill="rgb(209,209,209)"/></g></svg>