<?xml version="1.0" standalone="no"?><!-- Generator: Gravit.io --><svg xmlns="http://www.w3.org/2000/svg" xmlns:xlink="http://www.w3.org/1999/xlink" style="isolation:isolate" viewBox="0 0 16 16" width="16" height="16"><defs><clipPath id="_clipPath_mPp6pHXQSXNYCNIgDgsFxZVsDVZn1MzZ"><rect width="16" height="16"/></clipPath></defs><g clip-path="url(#_clipPath_mPp6pHXQSXNYCNIgDgsFxZVsDVZn1MzZ)"><path d=" M 3 5 L 13 5 L 13 2.17 C 14.165 2.583 15 3.694 15 5 L 15 12 C 15 13.657 13.657 15 12 15 L 4 15 C 2.343 15 1 13.657 1 12 L 1 5 C 1 3.694 1.835 2.583 3 2.17 L 3 5 L 3 5 Z  M 3 6 L 3 12 C 3 12.552 3.448 13 4 13 L 12 13 C 12.552 13 13 12.552 13 12 L 13 6 L 3 6 L 3 6 Z  M 6 2 L 10 2 L 10 4 L 6 4 L 6 2 L 6 2 Z  M 4.5 0 C 4.776 0 5 0.224 5 0.5 L 5 3.5 C 5 3.776 4.776 4 4.5 4 C 4.224 4 4 3.776 4 3.5 L 4 0.5 C 4 0.224 4.224 0 4.5 0 Z  M 11.5 0 C 11.776 0 12 0.224 12 0.5 L 12 3.5 C 12 3.776 11.776 4 11.5 4 C 11.224 4 11 3.776 11 3.5 L 11 0.5 C 11 0.224 11.224 0 11.5 0 Z  M 4 7 L 6 7 L 6 9 L 4 9 L 4 7 L 4 7 Z  M 10 7 L 12 7 L 12 9 L 10 9 L 10 7 L 10 7 Z  M 4 10 L 6 10 L 6 12 L 4 12 L 4 10 L 4 10 Z  M 7 10 L 9 10 L 9 12 L 7 12 L 7 10 L 7 10 Z  M 7 7 L 9 7 L 9 9 L 7 9 L 7 7 L 7 7 Z " fill="rgb(209,209,209)"/></g></svg>