<?xml version="1.0" standalone="no"?><!-- Generator: Gravit.io --><svg xmlns="http://www.w3.org/2000/svg" xmlns:xlink="http://www.w3.org/1999/xlink" style="isolation:isolate" viewBox="0 0 16 16" width="16" height="16"><defs><clipPath id="_clipPath_MEs7xzvjfrhJkaSGHjjUFGjybL4Unywv"><rect width="16" height="16"/></clipPath></defs><g clip-path="url(#_clipPath_MEs7xzvjfrhJkaSGHjjUFGjybL4Unywv)"><path d=" M 6 2 L 10 2 L 10 4 L 6 4 L 6 2 Z  M 13 2 C 14.65 2 16 3.5 16 5 L 16 13 C 16 14.65 14.66 16 13 16 L 3 16 C 1.35 16 0 14.66 0 13 L 0 5 C 0 3.35 1.35 2 3 2 L 3 4 C 2.45 4 2 4.55 2 5 L 2 13 C 2 13.55 2.45 14 3 14 L 13 14 C 13.55 14 14.05 13.55 14 13 L 14 5 C 14 4.45 13.55 4 13 4 L 13 2 Z " fill="rgb(209,209,209)"/><path d="M 4.5 0 L 4.5 0 C 4.776 0 5 0.224 5 0.5 L 5 3.5 C 5 3.776 4.776 4 4.5 4 L 4.5 4 C 4.224 4 4 3.776 4 3.5 L 4 0.5 C 4 0.224 4.224 0 4.5 0 Z" style="stroke:none;fill:#D1D1D1;stroke-miterlimit:10;"/><path d="M 11.5 0 L 11.5 0 C 11.776 0 12 0.224 12 0.5 L 12 3.5 C 12 3.776 11.776 4 11.5 4 L 11.5 4 C 11.224 4 11 3.776 11 3.5 L 11 0.5 C 11 0.224 11.224 0 11.5 0 Z" style="stroke:none;fill:#D1D1D1;stroke-miterlimit:10;"/></g></svg>