<?xml version="1.0" standalone="no"?><!-- Generator: Gravit.io --><svg xmlns="http://www.w3.org/2000/svg" xmlns:xlink="http://www.w3.org/1999/xlink" style="isolation:isolate" viewBox="0 0 16 16" width="16" height="16"><defs><clipPath id="_clipPath_EI49zpDcvo5HszX2bmAhDLuBtnd7lfdQ"><rect width="16" height="16"/></clipPath></defs><g clip-path="url(#_clipPath_EI49zpDcvo5HszX2bmAhDLuBtnd7lfdQ)"><path d=" M 14 1 C 13.448 1 13 1.448 13 2 L 13 3.146 C 11.245 1.311 8.629 0.579 6.177 1.238 C 3.724 1.896 1.827 3.84 1.227 6.307 C 1.131 6.657 1.232 7.031 1.491 7.285 C 1.75 7.539 2.126 7.633 2.474 7.531 C 2.822 7.428 3.087 7.145 3.167 6.791 C 3.715 4.567 5.709 3.002 8 3 C 9.565 2.998 11.038 3.74 11.967 5 L 10 5 C 9.448 5 9 5.448 9 6 C 9 6.552 9.448 7 10 7 L 14 7 C 14.552 7 15 6.552 15 6 L 15 2 C 15 1.448 14.552 1 14 1 Z  M 14.046 8.481 C 13.789 8.417 13.516 8.457 13.289 8.594 C 13.061 8.73 12.897 8.952 12.833 9.209 C 12.285 11.433 10.291 12.998 8 13 C 6.435 13.002 4.962 12.26 4.033 11 L 6 11 C 6.552 11 7 10.552 7 10 C 7 9.448 6.552 9 6 9 L 2 9 C 1.448 9 1 9.448 1 10 L 1 14 C 1 14.552 1.448 15 2 15 C 2.552 15 3 14.552 3 14 L 3 12.854 C 4.755 14.689 7.371 15.421 9.823 14.762 C 12.276 14.104 14.173 12.16 14.773 9.693 C 14.907 9.158 14.581 8.615 14.046 8.481 Z " fill="rgb(209,209,209)"/></g></svg>