<?xml version="1.0" standalone="no"?><!-- Generator: Gravit.io --><svg xmlns="http://www.w3.org/2000/svg" xmlns:xlink="http://www.w3.org/1999/xlink" style="isolation:isolate" viewBox="0 0 16 16" width="16" height="16"><defs><clipPath id="_clipPath_At0OIuYAh5GFAwrDePLJG36gE84jPO1B"><rect width="16" height="16"/></clipPath></defs><g clip-path="url(#_clipPath_At0OIuYAh5GFAwrDePLJG36gE84jPO1B)"><path d=" M 12 7 L 13 7 C 13.552 7 14 7.448 14 8 L 14 14 C 14 14.552 13.552 15 13 15 L 3 15 C 2.448 15 2 14.552 2 14 L 2 8 C 2 7.448 2.448 7 3 7 L 4 7 L 4 5 C 4 2.792 5.793 1 8 1 C 10.208 1 12 2.795 12 5 L 12 7 L 12 7 Z  M 10 7 L 10 5 C 10 3.899 9.102 3 8 3 C 6.897 3 6 3.897 6 5 L 6 7 L 10 7 L 10 7 Z " fill="rgb(209,209,209)"/></g></svg>