<?xml version="1.0" standalone="no"?><!-- Generator: Gravit.io --><svg xmlns="http://www.w3.org/2000/svg" xmlns:xlink="http://www.w3.org/1999/xlink" style="isolation:isolate" viewBox="0 0 16 16" width="16" height="16"><defs><clipPath id="_clipPath_geZ5Y0DPNaqH3Vxb3OJcsq2TQYCCb8dN"><rect width="16" height="16"/></clipPath></defs><g clip-path="url(#_clipPath_geZ5Y0DPNaqH3Vxb3OJcsq2TQYCCb8dN)"><path d=" M 8 0 C 3.582 0 0 3.582 0 8 C 0 12.418 3.582 16 8 16 C 12.418 16 16 12.418 16 8 C 16 3.582 12.418 0 8 0 Z  M 8 14 C 4.686 14 2 11.314 2 8 C 2 4.686 4.686 2 8 2 C 11.314 2 14 4.686 14 8 C 14 11.314 11.314 14 8 14 Z  M 11.5 8 L 8 8 L 8 4.5 C 8 4.224 7.776 4 7.5 4 C 7.224 4 7 4.224 7 4.5 L 7 8.5 C 7 8.776 7.224 9 7.5 9 L 11.5 9 C 11.776 9 12 8.776 12 8.5 C 12 8.224 11.776 8 11.5 8 Z " fill="rgb(209,209,209)"/></g></svg>