<?xml version="1.0" standalone="no"?><!-- Generator: Gravit.io --><svg xmlns="http://www.w3.org/2000/svg" xmlns:xlink="http://www.w3.org/1999/xlink" style="isolation:isolate" viewBox="0 0 16 16" width="16" height="16"><defs><clipPath id="_clipPath_2fP8MGnbiSnrCIjUpiS58BubDV8OwIw7"><rect width="16" height="16"/></clipPath></defs><g clip-path="url(#_clipPath_2fP8MGnbiSnrCIjUpiS58BubDV8OwIw7)"><path d=" M 15 8.758 C 14.402 8.357 13.716 8.107 13 8.028 L 13 5.828 L 10.172 3 L 3 3 L 3 6 L 8 6 C 8.552 6 9 5.552 9 5 L 9 3 L 3 3 L 3 13 L 8.027 13 C 8.109 13.734 8.367 14.416 8.757 15 L 3 15 C 1.895 15 1 14.105 1 13 L 1 3 C 1 1.895 1.895 1 3 1 L 10.172 1 C 10.702 1 11.211 1.211 11.586 1.586 L 14.414 4.414 C 14.789 4.789 15 5.298 15 5.828 L 15 8.758 L 15 8.758 Z  M 9.713 8.967 C 8.768 9.711 8.16 10.804 8.027 12 L 8 12 C 7.034 12 6.207 11.31 6.033 10.36 C 5.859 9.41 6.389 8.471 7.293 8.129 C 8.196 7.788 9.214 8.14 9.713 8.967 Z  M 9 12.5 C 9 10.567 10.567 9 12.5 9 C 14.433 9 16 10.567 16 12.5 C 16 14.433 14.433 16 12.5 16 C 10.567 16 9 14.433 9 12.5 Z  M 14.116 11.18 L 11.904 13.835 L 10.777 13.084 C 10.628 12.979 10.434 12.962 10.27 13.042 C 10.106 13.121 9.998 13.283 9.989 13.465 C 9.979 13.647 10.069 13.82 10.223 13.916 L 11.723 14.916 C 11.936 15.057 12.22 15.016 12.384 14.82 L 14.884 11.82 C 15.004 11.683 15.04 11.493 14.978 11.322 C 14.917 11.151 14.768 11.027 14.589 10.997 C 14.41 10.968 14.229 11.038 14.116 11.18 Z " fill="rgb(209,209,209)"/></g></svg>