<?xml version="1.0" standalone="no"?><!-- Generator: Gravit.io --><svg xmlns="http://www.w3.org/2000/svg" xmlns:xlink="http://www.w3.org/1999/xlink" style="isolation:isolate" viewBox="0 0 16 16" width="16" height="16"><defs><clipPath id="_clipPath_QYJ6KnvdoVuYRDQYHfOjSRWsawSGvmGa"><rect width="16" height="16"/></clipPath></defs><g clip-path="url(#_clipPath_QYJ6KnvdoVuYRDQYHfOjSRWsawSGvmGa)"><path d=" M 9 3 L 3 3 L 3 13 L 13 13 L 13 5.828 L 10.172 3 L 3 3 L 3 6 L 8 6 C 8.552 6 9 5.552 9 5 L 9 3 L 9 3 Z  M 3 1 L 10.172 1 C 10.702 1 11.211 1.211 11.586 1.586 L 14.414 4.414 C 14.789 4.789 15 5.298 15 5.828 L 15 13 C 15 14.105 14.105 15 13 15 L 3 15 C 1.895 15 1 14.105 1 13 L 1 3 C 1 1.895 1.895 1 3 1 Z  M 8 12 C 6.895 12 6 11.105 6 10 C 6 8.895 6.895 8 8 8 C 9.105 8 10 8.895 10 10 C 10 11.105 9.105 12 8 12 Z " fill="rgb(209,209,209)"/></g></svg>