<?xml version="1.0" standalone="no"?><!-- Generator: Gravit.io --><svg xmlns="http://www.w3.org/2000/svg" xmlns:xlink="http://www.w3.org/1999/xlink" style="isolation:isolate" viewBox="0 0 16 16" width="16" height="16"><defs><clipPath id="_clipPath_RTJT0cKqNxSbqJauTEFAuUQokmDV1oKr"><rect width="16" height="16"/></clipPath></defs><g clip-path="url(#_clipPath_RTJT0cKqNxSbqJauTEFAuUQokmDV1oKr)"><path d=" M 8 0 C 3.582 0 0 3.582 0 8 C 0 12.418 3.582 16 8 16 C 12.418 16 16 12.418 16 8 C 16 3.582 12.418 0 8 0 Z  M 13.163 4.958 L 11.611 4.958 C 11.398 4.112 11.042 3.309 10.56 2.582 C 11.645 3.097 12.551 3.924 13.163 4.958 Z  M 14 8 C 13.999 8.667 13.885 9.329 13.665 9.958 L 11.844 9.958 C 11.948 9.311 12 8.656 12 8 C 12 7.344 11.948 6.689 11.844 6.042 L 13.665 6.042 C 13.885 6.671 13.999 7.333 14 8 Z  M 8 14 C 6.925 14 5.963 12.8 5.433 11.042 L 10.568 11.042 C 10.037 12.8 9.075 14 8 14 Z  M 5.174 9.958 C 4.942 8.663 4.942 7.337 5.174 6.042 L 10.825 6.042 C 10.941 6.688 11 7.343 11 8 C 11 8.657 10.942 9.312 10.826 9.958 L 5.174 9.958 Z  M 2 8 C 2.001 7.333 2.115 6.671 2.335 6.042 L 4.156 6.042 C 3.948 7.339 3.948 8.661 4.156 9.958 L 2.335 9.958 C 2.115 9.329 2.001 8.667 2 8 Z  M 8 2 C 9.075 2 10.037 3.2 10.567 4.958 L 5.433 4.958 C 5.963 3.2 6.925 2 8 2 Z  M 5.44 2.582 C 4.958 3.309 4.602 4.112 4.389 4.958 L 2.837 4.958 C 3.449 3.924 4.355 3.097 5.44 2.582 Z  M 2.84 11.042 L 4.389 11.042 C 4.602 11.888 4.958 12.691 5.44 13.418 C 4.355 12.903 3.449 12.076 2.837 11.042 L 2.84 11.042 Z  M 10.563 13.418 C 11.045 12.691 11.401 11.888 11.614 11.042 L 13.166 11.042 C 12.554 12.076 11.646 12.903 10.56 13.418 L 10.563 13.418 Z " fill="rgb(209,209,209)"/></g></svg>