<?xml version="1.0" standalone="no"?><!-- Generator: Gravit.io --><svg xmlns="http://www.w3.org/2000/svg" xmlns:xlink="http://www.w3.org/1999/xlink" style="isolation:isolate" viewBox="0 0 16 16" width="16" height="16"><defs><clipPath id="_clipPath_MRZpjojX3oMMj5n4u6gmprDnG46x7A4l"><rect width="16" height="16"/></clipPath></defs><g clip-path="url(#_clipPath_MRZpjojX3oMMj5n4u6gmprDnG46x7A4l)"><path d=" M 15 8.758 C 14.402 8.357 13.716 8.107 13 8.028 L 13 2 L 2 2 L 2 13 L 8.027 13 C 8.109 13.734 8.367 14.416 8.757 15 L 2 15 C 0.895 15 0 14.16 0 13.125 L 0 1.875 C 0 0.839 0.895 0 2 0 L 13 0 C 14.105 0 15 0.84 15 1.875 L 15 8.758 L 15 8.758 Z  M 8.758 10 C 8.562 10.293 8.398 10.61 8.275 10.947 C 8.068 10.843 7.959 10.61 8.013 10.384 C 8.066 10.159 8.268 10 8.5 10 L 8.758 10 L 8.758 10 Z  M 8.5 4 L 11.5 4 C 11.776 4 12 4.224 12 4.5 C 12 4.776 11.776 5 11.5 5 L 8.5 5 C 8.224 5 8 4.776 8 4.5 C 8 4.224 8.224 4 8.5 4 Z  M 8.5 7 L 11.5 7 C 11.776 7 12 7.224 12 7.5 C 12 7.776 11.776 8 11.5 8 L 8.5 8 C 8.224 8 8 7.776 8 7.5 C 8 7.224 8.224 7 8.5 7 Z  M 6.146 3.146 C 6.342 2.95 6.658 2.95 6.854 3.146 C 7.05 3.342 7.05 3.658 6.854 3.854 L 4.854 5.854 C 4.76 5.948 4.633 6.001 4.5 6.001 C 4.367 6.001 4.24 5.948 4.146 5.854 L 3.146 4.854 C 2.95 4.658 2.95 4.342 3.146 4.146 C 3.342 3.95 3.658 3.95 3.854 4.146 L 4.5 4.793 L 6.146 3.146 L 6.146 3.146 Z  M 6.146 6.146 C 6.342 5.95 6.658 5.95 6.854 6.146 C 7.05 6.342 7.05 6.658 6.854 6.854 L 4.854 8.854 C 4.76 8.948 4.633 9.001 4.5 9.001 C 4.367 9.001 4.24 8.948 4.146 8.854 L 3.146 7.854 C 2.95 7.658 2.95 7.342 3.146 7.146 C 3.342 6.95 3.658 6.95 3.854 7.146 L 4.5 7.793 L 6.146 6.146 L 6.146 6.146 Z  M 12.5 16 C 10.567 16 9 14.433 9 12.5 C 9 10.567 10.567 9 12.5 9 C 14.433 9 16 10.567 16 12.5 C 16 14.433 14.433 16 12.5 16 Z  M 13 12 L 13 10.5 C 13 10.224 12.776 10 12.5 10 C 12.224 10 12 10.224 12 10.5 L 12 12 L 10.5 12 C 10.224 12 10 12.224 10 12.5 C 10 12.776 10.224 13 10.5 13 L 12 13 L 12 14.5 C 12 14.776 12.224 15 12.5 15 C 12.776 15 13 14.776 13 14.5 L 13 13 L 14.5 13 C 14.776 13 15 12.776 15 12.5 C 15 12.224 14.776 12 14.5 12 L 13 12 L 13 12 Z " fill="rgb(209,209,209)"/></g></svg>