<?xml version="1.0" standalone="no"?><!-- Generator: Gravit.io --><svg xmlns="http://www.w3.org/2000/svg" xmlns:xlink="http://www.w3.org/1999/xlink" style="isolation:isolate" viewBox="0 0 16 16" width="16" height="16"><defs><clipPath id="_clipPath_0yvpeXmaoZhruUVPELCSWOOQmay5LFkI"><rect width="16" height="16"/></clipPath></defs><g clip-path="url(#_clipPath_0yvpeXmaoZhruUVPELCSWOOQmay5LFkI)"><path d=" M 2 0 L 13 0 C 14.105 0 15 0.895 15 2 L 15 14 C 15 15.105 14.105 16 13 16 L 2 16 C 0.895 16 0 15.105 0 14 L 0 2 C 0 0.895 0.895 0 2 0 Z  M 2 2 L 2 14 L 13 14 L 13 2 L 2 2 L 2 2 Z  M 8.5 5 L 11.5 5 C 11.776 5 12 5.224 12 5.5 C 12 5.776 11.776 6 11.5 6 L 8.5 6 C 8.224 6 8 5.776 8 5.5 C 8 5.224 8.224 5 8.5 5 Z  M 8.5 8 L 11.5 8 C 11.776 8 12 8.224 12 8.5 C 12 8.776 11.776 9 11.5 9 L 8.5 9 C 8.224 9 8 8.776 8 8.5 C 8 8.224 8.224 8 8.5 8 Z  M 8.5 11 L 11.5 11 C 11.776 11 12 11.224 12 11.5 C 12 11.776 11.776 12 11.5 12 L 8.5 12 C 8.224 12 8 11.776 8 11.5 C 8 11.224 8.224 11 8.5 11 Z  M 6.146 4.146 C 6.342 3.95 6.658 3.95 6.854 4.146 C 7.05 4.342 7.05 4.658 6.854 4.854 L 4.854 6.854 C 4.76 6.948 4.633 7.001 4.5 7.001 C 4.367 7.001 4.24 6.948 4.146 6.854 L 3.146 5.854 C 2.95 5.658 2.95 5.342 3.146 5.146 C 3.342 4.95 3.658 4.95 3.854 5.146 L 4.5 5.793 L 6.146 4.146 L 6.146 4.146 Z  M 6.146 7.146 C 6.342 6.95 6.658 6.95 6.854 7.146 C 7.05 7.342 7.05 7.658 6.854 7.854 L 4.854 9.854 C 4.76 9.948 4.633 10.001 4.5 10.001 C 4.367 10.001 4.24 9.948 4.146 9.854 L 3.146 8.854 C 2.95 8.658 2.95 8.342 3.146 8.146 C 3.342 7.95 3.658 7.95 3.854 8.146 L 4.5 8.793 L 6.146 7.146 L 6.146 7.146 Z " fill="rgb(209,209,209)"/></g></svg>