<?xml version="1.0" standalone="no"?><!-- Generator: Gravit.io --><svg xmlns="http://www.w3.org/2000/svg" xmlns:xlink="http://www.w3.org/1999/xlink" style="isolation:isolate" viewBox="0 0 16 16" width="16" height="16"><defs><clipPath id="_clipPath_DVAGYh21G1OHaUY37GPe2chvEvJXpys4"><rect width="16" height="16"/></clipPath></defs><g clip-path="url(#_clipPath_DVAGYh21G1OHaUY37GPe2chvEvJXpys4)"><clipPath id="_clipPath_gWys5Baq6enZf7gf0NnydyeKz1VvAjLu"><rect x="0" y="0" width="16" height="16" transform="matrix(1,0,0,1,0,0)" fill="rgb(255,255,255)"/></clipPath><g clip-path="url(#_clipPath_gWys5Baq6enZf7gf0NnydyeKz1VvAjLu)"><g><path d=" M 10.35 9.017 C 9.087 9.023 8.035 9.021 7.194 9.014 C 6.102 9.004 5.272 9.328 4.537 9.919 C 4.38 10.046 4.23 10.181 4.087 10.323 C 3.997 10.411 3.725 10.69 3.707 10.707 C 3.456 10.967 3.084 11.071 2.734 10.98 C 2.385 10.888 2.112 10.615 2.02 10.266 C 1.929 9.916 2.033 9.544 2.293 9.293 C 2.297 9.289 2.579 9.001 2.686 8.896 C 2.885 8.7 3.076 8.528 3.284 8.361 C 4.36 7.495 5.628 6.999 7.213 7.014 C 8.052 7.022 9.107 7.023 10.379 7.017 L 9.232 5.64 C 8.993 5.367 8.921 4.986 9.043 4.644 C 9.166 4.302 9.464 4.054 9.822 3.995 C 10.18 3.936 10.542 4.076 10.768 4.36 L 13.802 8 L 10.768 11.64 C 10.411 12.049 9.792 12.097 9.375 11.75 C 8.958 11.402 8.895 10.785 9.232 10.36 L 10.351 9.017 L 10.35 9.017 L 10.35 9.017 Z " fill="rgb(232,232,232)"/></g></g></g></svg>