<?xml version="1.0" standalone="no"?><!-- Generator: Gravit.io --><svg xmlns="http://www.w3.org/2000/svg" xmlns:xlink="http://www.w3.org/1999/xlink" style="isolation:isolate" viewBox="0 0 16 16" width="16" height="16"><defs><clipPath id="_clipPath_gSMehppJPpzWECEB0nWCwAYObLLzx37H"><rect width="16" height="16"/></clipPath></defs><g clip-path="url(#_clipPath_gSMehppJPpzWECEB0nWCwAYObLLzx37H)"><path d=" M 6.663 6.033 L 7.768 7.36 C 8.007 7.633 8.079 8.014 7.957 8.356 C 7.834 8.698 7.536 8.946 7.178 9.005 C 6.82 9.064 6.458 8.924 6.232 8.64 L 3.198 5 L 6.232 1.36 C 6.589 0.951 7.208 0.903 7.625 1.25 C 8.042 1.598 8.105 2.215 7.768 2.64 L 6.612 4.028 C 10.68 4.178 13.086 4.937 13.894 6.553 C 14.827 8.417 13.657 10.757 10.707 13.707 C 10.456 13.967 10.084 14.071 9.734 13.98 C 9.385 13.888 9.112 13.615 9.02 13.266 C 8.929 12.916 9.033 12.544 9.293 12.293 C 11.677 9.909 12.507 8.249 12.106 7.447 C 11.74 6.717 9.906 6.17 6.663 6.033 Z " fill="rgb(232,232,232)"/></g></svg>