<?xml version="1.0" standalone="no"?><!-- Generator: Gravit.io --><svg xmlns="http://www.w3.org/2000/svg" xmlns:xlink="http://www.w3.org/1999/xlink" style="isolation:isolate" viewBox="0 0 16 16" width="16" height="16"><defs><clipPath id="_clipPath_Yw9ruLqknvaKzTAVKNYLHVoRz9Elc3xe"><rect width="16" height="16"/></clipPath></defs><g clip-path="url(#_clipPath_Yw9ruLqknvaKzTAVKNYLHVoRz9Elc3xe)"><g><path d=" M 11.455 6.035 C 10.192 6.041 8.14 6.039 7.299 6.032 C 6.207 6.022 5.733 4.017 7.318 4.032 C 8.157 4.04 10.212 4.041 11.484 4.035 L 10.337 2.658 C 10.098 2.385 10.026 2.004 10.149 1.662 C 10.271 1.321 10.569 1.072 10.927 1.013 C 11.286 0.954 11.648 1.094 11.873 1.378 L 14.907 5.018 L 11.873 8.658 C 11.516 9.067 10.897 9.116 10.48 8.768 C 10.063 8.421 10 7.804 10.337 7.378 L 11.456 6.035 L 11.455 6.035 Z " fill="rgb(232,232,232)"/><path d=" M 4.545 9.965 C 5.808 9.959 7.86 9.961 8.701 9.968 C 9.793 9.978 10.267 11.983 8.682 11.968 C 7.843 11.96 5.788 11.959 4.516 11.965 L 5.663 13.342 C 5.902 13.615 5.974 13.996 5.851 14.338 C 5.729 14.679 5.431 14.928 5.073 14.987 C 4.714 15.046 4.352 14.906 4.127 14.622 L 1.093 10.982 L 4.127 7.342 C 4.484 6.933 5.103 6.884 5.52 7.232 C 5.937 7.579 6 8.196 5.663 8.622 L 4.544 9.965 L 4.545 9.965 Z " fill="rgb(232,232,232)"/></g></g></svg>