<?xml version="1.0" standalone="no"?><!-- Generator: Gravit.io --><svg xmlns="http://www.w3.org/2000/svg" xmlns:xlink="http://www.w3.org/1999/xlink" style="isolation:isolate" viewBox="0 0 16 16" width="16" height="16"><defs><clipPath id="_clipPath_WGvUQeyMqC4rJhf66YyuA1evSklCrpAY"><rect width="16" height="16"/></clipPath></defs><g clip-path="url(#_clipPath_WGvUQeyMqC4rJhf66YyuA1evSklCrpAY)"><clipPath id="_clipPath_ztL1ke9GUBcudlEqMQAMxF4u1mnJKX9T"><rect x="0" y="0" width="16" height="16" transform="matrix(1,0,0,1,0,0)" fill="rgb(255,255,255)"/></clipPath><g clip-path="url(#_clipPath_ztL1ke9GUBcudlEqMQAMxF4u1mnJKX9T)"><g><rect x="0" y="0" width="16" height="16" transform="matrix(1,0,0,1,0,0)" fill="none"/><path d=" M 11.67 11.609 C 11.502 11.78 9.318 10.411 9.098 10.505 C 8.878 10.598 8.282 14.998 8.043 15 C 7.803 15.002 7.161 10.595 6.939 10.505 C 6.717 10.416 4.561 11.838 4.391 11.67 C 4.22 11.502 5.65 9.306 5.556 9.086 C 5.463 8.866 1.002 8.282 1 8.043 C 0.998 7.803 5.405 7.185 5.495 6.963 C 5.584 6.741 4.162 4.561 4.33 4.391 C 4.498 4.22 6.743 5.686 6.963 5.592 C 7.183 5.499 7.718 1.002 7.957 1 C 8.197 0.998 8.803 5.49 9.025 5.58 C 9.247 5.669 11.439 4.162 11.609 4.33 C 11.78 4.498 10.375 6.706 10.469 6.926 C 10.562 7.146 14.998 7.718 15 7.957 C 15.002 8.197 10.583 8.791 10.493 9.013 C 10.404 9.235 11.838 11.439 11.67 11.609 Z " fill="rgb(209,209,209)"/></g></g><path d=" M 10.097 10.062 C 10.001 10.16 8.883 9.734 8.758 9.787 C 8.632 9.841 8.161 11.999 8.025 12 C 7.887 12.001 7.399 9.851 7.272 9.799 C 7.145 9.749 6.035 10.193 5.938 10.097 C 5.84 10.001 6.266 8.883 6.213 8.758 C 6.159 8.632 4.001 8.161 4 8.025 C 3.999 7.887 6.149 7.399 6.201 7.272 C 6.251 7.145 5.807 6.035 5.903 5.938 C 5.999 5.84 7.117 6.266 7.242 6.213 C 7.368 6.159 7.839 4.001 7.975 4 C 8.113 3.999 8.601 6.149 8.728 6.201 C 8.855 6.251 9.965 5.807 10.062 5.903 C 10.16 5.999 9.734 7.117 9.787 7.242 C 9.841 7.368 11.999 7.839 12 7.975 C 12.001 8.113 9.851 8.601 9.799 8.728 C 9.749 8.855 10.193 9.965 10.097 10.062 Z " fill="rgb(255,255,255)" fill-opacity="0.7"/><path d=" M 9.311 9.289 C 9.251 9.35 8.552 9.084 8.474 9.117 C 8.395 9.15 8.101 10.499 8.015 10.5 C 7.93 10.501 7.624 9.157 7.545 9.125 C 7.466 9.093 6.772 9.371 6.711 9.311 C 6.65 9.251 6.916 8.552 6.883 8.474 C 6.85 8.395 5.501 8.101 5.5 8.015 C 5.499 7.93 6.843 7.624 6.875 7.545 C 6.907 7.466 6.629 6.772 6.689 6.711 C 6.749 6.65 7.448 6.916 7.526 6.883 C 7.605 6.85 7.899 5.501 7.985 5.5 C 8.07 5.499 8.376 6.843 8.455 6.875 C 8.534 6.907 9.228 6.629 9.289 6.689 C 9.35 6.749 9.084 7.448 9.117 7.526 C 9.15 7.605 10.499 7.899 10.5 7.985 C 10.501 8.07 9.157 8.376 9.125 8.455 C 9.093 8.534 9.371 9.228 9.311 9.289 Z " fill="rgb(255,255,255)"/></g></svg>