<?xml version="1.0" standalone="no"?><!-- Generator: Gravit.io --><svg xmlns="http://www.w3.org/2000/svg" xmlns:xlink="http://www.w3.org/1999/xlink" style="isolation:isolate" viewBox="0 0 16 16" width="16" height="16"><defs><clipPath id="_clipPath_SAPCU4m774dxs1GTzscJRaj9nBARRJIo"><rect width="16" height="16"/></clipPath></defs><g clip-path="url(#_clipPath_SAPCU4m774dxs1GTzscJRaj9nBARRJIo)"><path d=" M 13.212 6.697 C 13.128 6.444 12.913 6.258 12.651 6.21 L 9.934 5.724 L 8.655 3.156 C 8.531 2.908 8.278 2.752 8.001 2.752 C 7.723 2.752 7.47 2.908 7.347 3.156 L 6.066 5.724 L 3.355 6.208 C 3.091 6.255 2.873 6.442 2.788 6.696 C 2.703 6.95 2.764 7.231 2.946 7.427 L 4.891 9.518 L 4.486 12.414 C 4.448 12.686 4.565 12.955 4.789 13.113 C 5.013 13.271 5.307 13.29 5.549 13.163 L 8 11.885 L 10.452 13.165 C 10.694 13.292 10.988 13.273 11.212 13.115 C 11.436 12.957 11.553 12.688 11.515 12.416 L 11.109 9.518 L 13.053 7.428 C 13.236 7.232 13.297 6.951 13.212 6.697 Z " fill="rgb(232,232,232)"/></g></svg>