<?xml version="1.0" standalone="no"?><!-- Generator: Gravit.io --><svg xmlns="http://www.w3.org/2000/svg" xmlns:xlink="http://www.w3.org/1999/xlink" style="isolation:isolate" viewBox="0 0 16 16" width="16" height="16"><defs><clipPath id="_clipPath_mPxQYZWZBhQfODUE04X3mPROiASsgr1d"><rect width="16" height="16"/></clipPath></defs><g clip-path="url(#_clipPath_mPxQYZWZBhQfODUE04X3mPROiASsgr1d)"><path d=" M 5.21 13.248 C 4.998 13.248 4.797 13.156 4.658 12.997 C 4.519 12.837 4.456 12.625 4.486 12.415 L 4.89 9.519 L 2.946 7.428 C 2.763 7.232 2.703 6.952 2.788 6.698 C 2.873 6.444 3.091 6.257 3.355 6.211 L 6.066 5.726 L 7.346 3.157 C 7.47 2.909 7.723 2.752 8 2.752 C 8.277 2.752 8.531 2.909 8.654 3.157 L 9.934 5.726 L 12.648 6.21 C 12.911 6.257 13.128 6.444 13.212 6.698 C 13.297 6.952 13.236 7.232 13.054 7.428 L 11.11 9.519 L 11.514 12.415 C 11.552 12.687 11.435 12.956 11.211 13.114 C 10.987 13.272 10.694 13.291 10.451 13.164 L 8 11.886 L 5.547 13.167 C 5.443 13.22 5.327 13.248 5.21 13.248 Z  M 4.666 7.327 L 6.294 9.077 L 5.962 11.451 L 8 10.388 L 10.038 11.451 L 9.706 9.078 L 11.334 7.327 L 9.042 6.918 L 8 4.825 L 6.958 6.918 C 6.702 6.977 5.945 7.12 4.666 7.327 Z " fill="rgb(185,185,185)"/></g></svg>