<?xml version="1.0" standalone="no"?><!-- Generator: Gravit.io --><svg xmlns="http://www.w3.org/2000/svg" xmlns:xlink="http://www.w3.org/1999/xlink" style="isolation:isolate" viewBox="0 0 12 12" width="12" height="12"><defs><clipPath id="_clipPath_t19ZB7AmPfGNcwc4o0Tck6DOK5JrJjJ0"><rect width="12" height="12"/></clipPath></defs><g clip-path="url(#_clipPath_t19ZB7AmPfGNcwc4o0Tck6DOK5JrJjJ0)"><clipPath id="_clipPath_HxXSPtSIiAionph9BNHOVb9CLekJ4U8C"><rect x="0" y="0" width="12" height="12" transform="matrix(1,0,0,1,0,0)" fill="rgb(255,255,255)"/></clipPath><g clip-path="url(#_clipPath_HxXSPtSIiAionph9BNHOVb9CLekJ4U8C)"><g><path d=" M 0.185 10.414 C 0.118 10.381 0.048 10.316 0.03 10.268 C 0.012 10.221 -0.001 8.282 0 5.96 C 0.003 2.129 0.012 1.728 0.094 1.636 C 0.179 1.543 0.328 1.536 2.247 1.536 L 4.309 1.536 L 4.723 1.952 L 5.137 2.369 L 8.568 2.369 L 12 2.369 L 12 6.305 C 12 10.235 12 10.24 11.883 10.346 C 11.77 10.448 11.585 10.452 6.036 10.462 C 2.062 10.47 0.269 10.455 0.185 10.414 L 0.185 10.414 L 0.185 10.414 Z " fill="rgb(162,162,162)" fill-opacity="0.4" vector-effect="non-scaling-stroke" stroke-width="1" stroke="rgb(255,255,255)" stroke-opacity="100" stroke-linejoin="round" stroke-linecap="butt" stroke-miterlimit="4"/></g></g><path d=" M 5.416 3.498 C 3.688 3.498 2.26 4.912 2.26 6.64 C 2.26 7.297 2.482 7.901 2.83 8.407 L 0.726 10.514 C 0.501 10.736 0.497 11.099 0.718 11.325 C 0.939 11.552 1.302 11.556 1.529 11.335 L 3.633 9.229 C 4.139 9.578 4.759 9.782 5.416 9.782 C 7.145 9.782 8.555 8.368 8.555 6.64 C 8.555 4.912 7.145 3.498 5.416 3.498 L 5.416 3.498 Z  M 5.416 4.641 C 6.527 4.641 7.413 5.529 7.413 6.64 C 7.413 7.751 6.527 8.639 5.416 8.639 C 4.305 8.639 3.419 7.751 3.419 6.64 C 3.419 5.529 4.305 4.641 5.416 4.641 Z " fill="rgb(232,232,232)"/></g></svg>