<?xml version="1.0" standalone="no"?><!-- Generator: Gravit.io --><svg xmlns="http://www.w3.org/2000/svg" xmlns:xlink="http://www.w3.org/1999/xlink" style="isolation:isolate" viewBox="0 0 12 12" width="12" height="12"><defs><clipPath id="_clipPath_i83a5rFadeOgelUMyxcPnqKiBRi7Qk9u"><rect width="12" height="12"/></clipPath></defs><g clip-path="url(#_clipPath_i83a5rFadeOgelUMyxcPnqKiBRi7Qk9u)"><g><g><path d=" M 0 4.326 L 0 9.643 L 0 10.732 Q 0.629 10.714 1.071 10.714 L 10.929 10.714 L 12.021 10.7 Q 12 10.085 12 9.643 L 12 4.326 Q 11.705 4.654 11.324 4.908 Q 8.9 6.556 7.996 7.219 Q 7.614 7.5 7.376 7.657 Q 7.138 7.815 6.743 7.979 Q 6.348 8.143 6.007 8.143 L 6 8.143 L 5.993 8.143 Q 5.652 8.143 5.257 7.979 Q 4.862 7.815 4.624 7.657 Q 4.386 7.5 4.004 7.219 Q 2.866 6.395 0.67 4.908 Q 0.288 4.647 0 4.326 Z  M 0 2.357 Q 0 2.886 0.328 3.368 Q 0.656 3.85 1.145 4.192 Q 3.663 5.94 4.279 6.368 Q 4.346 6.415 4.564 6.573 Q 4.781 6.73 4.925 6.827 Q 5.069 6.924 5.273 7.045 Q 5.478 7.165 5.658 7.225 Q 5.839 7.286 5.993 7.286 L 6 7.286 L 6.007 7.286 Q 6.161 7.286 6.342 7.225 Q 6.522 7.165 6.727 7.045 Q 6.931 6.924 7.075 6.827 Q 7.219 6.73 7.436 6.573 Q 7.654 6.415 7.721 6.368 Q 8.33 5.94 9.475 5.146 Q 10.621 4.353 10.848 4.192 Q 11.263 3.911 11.632 3.419 Q 12 2.926 12 2.504 L 12.011 1.279 Q 11.444 1.286 10.929 1.286 L 1.071 1.286 L -0.032 1.279 Q 0 1.915 0 2.357 Z " fill-rule="evenodd" fill="rgb(236,236,236)"/></g></g></g></svg>