<?xml version="1.0" standalone="no"?><!-- Generator: Gravit.io --><svg xmlns="http://www.w3.org/2000/svg" xmlns:xlink="http://www.w3.org/1999/xlink" style="isolation:isolate" viewBox="0 0 12 12" width="12" height="12"><defs><clipPath id="_clipPath_DWUytvexSxfi3Kf3nmAvorlpVQWhXAFA"><rect width="12" height="12"/></clipPath></defs><g clip-path="url(#_clipPath_DWUytvexSxfi3Kf3nmAvorlpVQWhXAFA)"><path d=" M 9.75 0 L 2.25 0 C 1.422 0 0.75 0.672 0.75 1.5 L 0.75 10.5 C 0.75 11.328 1.422 12 2.25 12 L 9.75 12 C 10.578 12 11.25 11.328 11.25 10.5 L 11.25 1.5 C 11.25 0.672 10.578 0 9.75 0 Z  M 9.75 9.75 C 9.75 10.164 9.414 10.5 9 10.5 L 3 10.5 C 2.586 10.5 2.25 10.164 2.25 9.75 L 2.25 2.25 C 2.25 1.836 2.586 1.5 3 1.5 L 9 1.5 C 9.414 1.5 9.75 1.836 9.75 2.25 L 9.75 9.75 Z  M 7.875 3 L 4.125 3 C 3.918 3 3.75 3.168 3.75 3.375 C 3.75 3.582 3.918 3.75 4.125 3.75 L 7.875 3.75 C 8.082 3.75 8.25 3.582 8.25 3.375 C 8.25 3.168 8.082 3 7.875 3 Z  M 7.875 4.5 L 4.125 4.5 C 3.918 4.5 3.75 4.668 3.75 4.875 C 3.75 5.082 3.918 5.25 4.125 5.25 L 7.875 5.25 C 8.082 5.25 8.25 5.082 8.25 4.875 C 8.25 4.668 8.082 4.5 7.875 4.5 Z  M 7.875 6 L 4.125 6 C 3.918 6 3.75 6.168 3.75 6.375 C 3.75 6.582 3.918 6.75 4.125 6.75 L 7.875 6.75 C 8.082 6.75 8.25 6.582 8.25 6.375 C 8.25 6.168 8.082 6 7.875 6 Z  M 5.625 7.5 L 4.125 7.5 C 3.918 7.5 3.75 7.668 3.75 7.875 C 3.75 8.082 3.918 8.25 4.125 8.25 L 5.625 8.25 C 5.832 8.25 6 8.082 6 7.875 C 6 7.668 5.832 7.5 5.625 7.5 Z " fill="rgb(209,209,209)"/></g></svg>