<?xml version="1.0" standalone="no"?><!-- Generator: Gravit.io --><svg xmlns="http://www.w3.org/2000/svg" xmlns:xlink="http://www.w3.org/1999/xlink" style="isolation:isolate" viewBox="0 0 12 12" width="12" height="12"><defs><clipPath id="_clipPath_pqO0NzF12GsqwAC2aLRo8L3eLixjrV6t"><rect width="12" height="12"/></clipPath></defs><g clip-path="url(#_clipPath_pqO0NzF12GsqwAC2aLRo8L3eLixjrV6t)"><path d=" M 10.688 3.188 Q 10.781 3.282 10.875 3.429 L 7.714 3.429 L 7.714 0.268 Q 7.862 0.362 7.955 0.455 L 10.688 3.188 Z  M 7.5 4.286 L 11.143 4.286 L 11.143 11.357 Q 11.143 11.625 10.955 11.813 Q 10.768 12 10.5 12 L 1.5 12 Q 1.232 12 1.045 11.813 Q 0.857 11.625 0.857 11.357 L 0.857 0.643 Q 0.857 0.375 1.045 0.188 Q 1.232 0 1.5 0 L 6.857 0 L 6.857 3.643 Q 6.857 3.911 7.045 4.098 Q 7.232 4.286 7.5 4.286 Z  M 8.571 9.214 L 8.571 8.786 Q 8.571 8.692 8.511 8.632 Q 8.451 8.572 8.357 8.572 L 3.643 8.572 Q 3.549 8.572 3.489 8.632 Q 3.429 8.693 3.429 8.786 L 3.429 9.215 Q 3.429 9.309 3.489 9.369 Q 3.549 9.429 3.643 9.429 L 8.357 9.429 Q 8.451 9.429 8.511 9.369 Q 8.571 9.308 8.571 9.214 Z  M 8.571 7.5 L 8.571 7.071 Q 8.571 6.977 8.511 6.917 Q 8.451 6.857 8.357 6.857 L 3.643 6.857 Q 3.549 6.857 3.489 6.917 Q 3.429 6.978 3.429 7.072 L 3.429 7.5 Q 3.429 7.594 3.489 7.654 Q 3.549 7.714 3.643 7.714 L 8.357 7.714 Q 8.451 7.714 8.511 7.654 Q 8.571 7.594 8.571 7.5 Z  M 8.571 5.786 L 8.571 5.357 Q 8.571 5.263 8.511 5.203 Q 8.451 5.143 8.357 5.143 L 3.643 5.143 Q 3.549 5.143 3.489 5.203 Q 3.429 5.264 3.429 5.357 L 3.429 5.786 Q 3.429 5.88 3.489 5.94 Q 3.549 6 3.643 6 L 8.357 6 Q 8.451 6 8.511 5.94 Q 8.571 5.879 8.571 5.786 L 8.571 5.786 Z " fill="rgb(209,209,209)"/></g></svg>