<?xml version="1.0" standalone="no"?><!-- Generator: Gravit.io --><svg xmlns="http://www.w3.org/2000/svg" xmlns:xlink="http://www.w3.org/1999/xlink" style="isolation:isolate" viewBox="0 0 12 12" width="12" height="12"><defs><clipPath id="_clipPath_o2A91t84ogPJCVh5um2B4kk3aK4xkh8z"><rect width="12" height="12"/></clipPath></defs><g clip-path="url(#_clipPath_o2A91t84ogPJCVh5um2B4kk3aK4xkh8z)"><path d=" M 10.908 8.321 L 10.951 1.942 Q 10.951 1.861 10.892 1.801 Q 10.832 1.742 10.751 1.742 L 1.142 1.795 Q 1.061 1.795 1.002 1.854 Q 0.942 1.914 0.942 1.995 L 0.953 8.353 Q 0.953 8.434 1.012 8.494 Q 1.072 8.553 1.153 8.553 L 10.708 8.521 Q 10.79 8.521 10.849 8.462 Q 10.908 8.403 10.908 8.321 L 10.908 8.321 Z  M 12 1.8 L 12 8.6 Q 12 9.013 11.706 9.306 Q 11.413 9.6 11 9.6 L 7.6 9.6 Q 7.6 9.831 7.7 10.084 Q 7.8 10.338 7.9 10.528 Q 8 10.719 8 10.8 Q 8 10.963 7.881 11.081 Q 7.763 11.2 7.6 11.2 L 4.4 11.2 Q 4.238 11.2 4.119 11.081 Q 4 10.963 4 10.8 Q 4 10.712 4.1 10.525 Q 4.2 10.338 4.3 10.088 Q 4.4 9.838 4.4 9.6 L 1 9.6 Q 0.588 9.6 0.294 9.306 Q 0 9.013 0 8.6 L 0 1.8 Q 0 1.387 0.294 1.094 Q 0.588 0.8 1 0.8 L 11 0.8 Q 11.413 0.8 11.706 1.094 Q 12 1.387 12 1.8 Z " fill="rgb(209,209,209)"/></g></svg>