<?xml version="1.0" standalone="no"?><!-- Generator: Gravit.io --><svg xmlns="http://www.w3.org/2000/svg" xmlns:xlink="http://www.w3.org/1999/xlink" style="isolation:isolate" viewBox="0 0 12 12" width="12" height="12"><defs><clipPath id="_clipPath_FO6DnniIWkjIgdpIiyjCSJ4HvDI6Fi24"><rect width="12" height="12"/></clipPath></defs><g clip-path="url(#_clipPath_FO6DnniIWkjIgdpIiyjCSJ4HvDI6Fi24)"><path d=" M 5.129 0 C 4.417 5.026 2.162 5.072 1.914 7.67 C 1.665 10.28 4.32 11.891 4.758 12 C 4.599 11.651 3.915 10.203 3.877 9.605 C 3.829 8.84 4.262 8.566 4.855 7.73 C 5.282 7.13 5.763 6.307 6.117 5.09 C 7.377 6.192 7.916 6.833 8.168 8.164 C 8.402 9.405 7.703 11.444 7.604 11.727 C 7.588 11.763 7.543 11.877 7.543 11.877 C 11.741 8.713 10.666 3.882 5.129 0 Z " fill="rgb(209,209,209)"/></g></svg>