<?xml version="1.0" standalone="no"?><!-- Generator: Gravit.io --><svg xmlns="http://www.w3.org/2000/svg" xmlns:xlink="http://www.w3.org/1999/xlink" style="isolation:isolate" viewBox="0 0 12 12" width="12" height="12"><defs><clipPath id="_clipPath_TpdVVxQ0sLOiq1dZCrAFKsl29L0dZLfU"><rect width="12" height="12"/></clipPath></defs><g clip-path="url(#_clipPath_TpdVVxQ0sLOiq1dZCrAFKsl29L0dZLfU)"><path d=" M 11.813 0.074 Q 12.034 0.235 11.994 0.502 L 10.28 10.788 Q 10.246 10.982 10.065 11.089 Q 9.972 11.142 9.858 11.142 Q 9.784 11.142 9.697 11.109 L 6.664 9.87 L 5.043 11.846 Q 4.923 12 4.715 12 Q 4.628 12 4.568 11.973 Q 4.44 11.926 4.363 11.815 Q 4.286 11.705 4.286 11.571 L 4.286 9.234 L 10.072 2.143 L 2.914 8.337 L 0.269 7.252 Q 0.021 7.158 0.001 6.884 Q -0.013 6.616 0.215 6.489 L 11.358 0.06 Q 11.458 0 11.572 0 Q 11.706 0 11.813 0.074 L 11.813 0.074 Z " fill="rgb(209,209,209)"/></g></svg>