<?xml version="1.0" standalone="no"?><!-- Generator: Gravit.io --><svg xmlns="http://www.w3.org/2000/svg" xmlns:xlink="http://www.w3.org/1999/xlink" style="isolation:isolate" viewBox="0 0 12 12" width="12" height="12"><defs><clipPath id="_clipPath_VIDzBVyaJJnOEgSWXokZfMUcRUZRAH0I"><rect width="12" height="12"/></clipPath></defs><g clip-path="url(#_clipPath_VIDzBVyaJJnOEgSWXokZfMUcRUZRAH0I)"><path d=" M 1.539 5.5 Q 1.547 5.523 1.559 5.566 Q 4.756 5.59 4.764 5.606 L 4.774 9.709 L 7.769 9.709 L 7.705 5.563 Q 10.43 5.602 10.441 5.559 Q 10.453 5.516 10.461 5.5 L 6.202 1.908 L 1.539 5.5 Z  M 0 5.266 L 0 1.5 Q 0 1.297 0.148 1.148 Q 0.297 1 0.5 1 L 11.5 1 Q 11.703 1 11.852 1.148 Q 12 1.297 12 1.5 L 12 5.266 L 11.989 10.529 Q 11.909 10.855 11.702 10.988 Q 9.453 11 9.25 11 L 2.75 11 Q 0.49 10.966 0.298 10.87 Q -0.032 10.593 0.021 10.401 Q 0 5.75 0 5.266 Z " fill="rgb(236,236,236)"/></g></svg>