<?xml version="1.0" standalone="no"?><!-- Generator: Gravit.io --><svg xmlns="http://www.w3.org/2000/svg" xmlns:xlink="http://www.w3.org/1999/xlink" style="isolation:isolate" viewBox="0 0 12 12" width="12" height="12"><defs><clipPath id="_clipPath_muBGWbr6PC2WSC5NAxWEa9daJIqT1NpF"><rect width="12" height="12"/></clipPath></defs><g clip-path="url(#_clipPath_muBGWbr6PC2WSC5NAxWEa9daJIqT1NpF)"><path d=" M 0.185 10.414 C 0.118 10.381 0.048 10.316 0.03 10.268 C 0.012 10.221 -0.001 8.282 0 5.96 C 0.003 2.129 0.012 1.728 0.094 1.636 C 0.179 1.543 0.328 1.536 2.247 1.536 L 4.309 1.536 L 4.723 1.952 L 5.137 2.369 L 8.568 2.369 L 12 2.369 L 12 6.305 C 12 10.235 12 10.24 11.883 10.346 C 11.77 10.448 11.585 10.452 6.036 10.462 C 2.062 10.47 0.269 10.455 0.185 10.414 L 0.185 10.414 Z " fill="rgb(162,162,162)" fill-opacity="0.4" vector-effect="non-scaling-stroke" stroke-width="1" stroke="rgb(255,255,255)" stroke-linejoin="round" stroke-linecap="butt" stroke-miterlimit="4"/></g></svg>