<?xml version="1.0" standalone="no"?><!-- Generator: Gravit.io --><svg xmlns="http://www.w3.org/2000/svg" xmlns:xlink="http://www.w3.org/1999/xlink" style="isolation:isolate" viewBox="0 0 12 12" width="12" height="12"><defs><clipPath id="_clipPath_gRdOKV1Qa4naiRRvm8A69O0hUdg0wuoI"><rect width="12" height="12"/></clipPath></defs><g clip-path="url(#_clipPath_gRdOKV1Qa4naiRRvm8A69O0hUdg0wuoI)"><clipPath id="_clipPath_R9DYRqrQhZhsKFmKUVdEIsFPXFoBQ97l"><rect x="0.011" y="0.011" width="12" height="12" transform="matrix(1,0,0,1,0,0)" fill="rgb(255,255,255)"/></clipPath><g clip-path="url(#_clipPath_R9DYRqrQhZhsKFmKUVdEIsFPXFoBQ97l)"><g><path d=" M 9.482 7.371 L 9.482 8.713 Q 9.482 9.553 8.913 10.15 Q 8.345 10.746 7.545 10.746 L 1.948 10.746 Q 1.148 10.746 0.579 10.15 Q 0.011 9.553 0.011 8.713 L 0.011 2.84 Q 0.011 1.999 0.579 1.403 Q 1.148 0.807 1.948 0.807 L 5.776 0.807 Q 6.199 0.807 6.563 0.983 Q 6.664 1.032 6.684 1.145 Q 6.704 1.265 6.623 1.349 L 6.294 1.696 Q 6.199 1.794 6.078 1.752 Q 5.924 1.71 5.776 1.71 L 1.948 1.71 Q 1.504 1.71 1.188 2.042 Q 0.872 2.374 0.872 2.84 L 0.872 8.714 Q 0.872 9.18 1.188 9.511 Q 1.504 9.843 1.948 9.843 L 7.545 9.843 Q 7.989 9.843 8.305 9.511 Q 8.621 9.18 8.621 8.714 L 8.621 7.824 Q 8.621 7.732 8.681 7.668 L 9.112 7.217 Q 9.213 7.111 9.347 7.168 Q 9.482 7.225 9.482 7.373 L 9.482 7.371 Z " fill="rgb(185,185,185)"/><path d=" M 9.218 2.101 L 10.369 3.757 L 4.584 7.936 C 4.491 8.003 4.351 8.08 4.165 8.167 L 2.838 7.954 L 3.052 6.627 C 3.193 6.477 3.311 6.369 3.404 6.302 L 9.218 2.101 Z  M 9.7 1.863 L 10.424 1.34 C 10.876 1.026 11.495 1.132 11.817 1.578 C 12.139 2.024 12.044 2.645 11.604 2.975 L 10.881 3.497 L 9.7 1.863 Z " fill="rgb(185,185,185)"/></g></g></g></svg>