<?xml version="1.0" standalone="no"?><!-- Generator: Gravit.io --><svg xmlns="http://www.w3.org/2000/svg" xmlns:xlink="http://www.w3.org/1999/xlink" style="isolation:isolate" viewBox="0 0 12 12" width="12" height="12"><defs><clipPath id="_clipPath_znSLsdNuTy0GhWe2X2nmG7fxlDDSt9Uk"><rect width="12" height="12"/></clipPath></defs><g clip-path="url(#_clipPath_znSLsdNuTy0GhWe2X2nmG7fxlDDSt9Uk)"><path d=" M 10.461 6.5 Q 10.453 6.477 10.441 6.434 Q 7.244 6.41 7.236 6.394 L 7.226 2.291 L 4.231 2.291 L 4.295 6.437 Q 1.57 6.398 1.559 6.441 Q 1.547 6.484 1.539 6.5 L 5.798 10.092 L 10.461 6.5 Z  M 12 6.734 L 12 10.5 Q 12 10.703 11.852 10.852 Q 11.703 11 11.5 11 L 0.5 11 Q 0.297 11 0.148 10.852 Q 0 10.703 0 10.5 L 0 6.734 L 0.011 1.471 Q 0.091 1.145 0.298 1.012 Q 2.547 1 2.75 1 L 9.25 1 Q 11.51 1.034 11.702 1.13 Q 12.032 1.407 11.979 1.599 Q 12 6.25 12 6.734 Z " fill="rgb(236,236,236)"/></g></svg>