<?xml version="1.0" standalone="no"?><!-- Generator: Gravit.io --><svg xmlns="http://www.w3.org/2000/svg" xmlns:xlink="http://www.w3.org/1999/xlink" style="isolation:isolate" viewBox="0 0 12 12" width="12" height="12"><defs><clipPath id="_clipPath_3BzZTnh4X25tvd8K4BkNXXmn897p2WRd"><rect width="12" height="12"/></clipPath></defs><g clip-path="url(#_clipPath_3BzZTnh4X25tvd8K4BkNXXmn897p2WRd)"><path d=" M 3.272 10.363 Q 3.272 11.045 2.795 11.522 Q 2.318 11.999 1.636 11.999 Q 0.954 11.999 0.477 11.522 Q 0 11.045 0 10.363 Q 0 9.681 0.477 9.204 Q 0.954 8.727 1.636 8.727 Q 2.318 8.727 2.795 9.204 Q 3.272 9.681 3.272 10.363 Z  M 7.635 11.411 Q 7.652 11.65 7.491 11.82 Q 7.337 11.999 7.09 11.999 L 5.94 11.999 Q 5.727 11.999 5.573 11.859 Q 5.42 11.718 5.403 11.505 Q 5.215 9.553 3.83 8.169 Q 2.446 6.784 0.494 6.596 Q 0.281 6.579 0.141 6.426 Q 0 6.273 0 6.06 L 0 4.909 Q 0 4.662 0.179 4.509 Q 0.324 4.364 0.545 4.364 L 0.588 4.364 Q 1.951 4.475 3.196 5.05 Q 4.44 5.625 5.403 6.596 Q 6.374 7.559 6.949 8.804 Q 7.525 10.048 7.635 11.411 L 7.635 11.411 Z  M 11.998 11.428 Q 12.015 11.658 11.845 11.829 Q 11.692 11.999 11.453 11.999 L 10.234 11.999 Q 10.013 11.999 9.855 11.85 Q 9.698 11.701 9.689 11.488 Q 9.587 9.656 8.828 8.007 Q 8.07 6.358 6.856 5.144 Q 5.641 3.929 3.992 3.171 Q 2.343 2.412 0.511 2.302 Q 0.298 2.292 0.149 2.135 Q 0 1.978 0 1.765 L 0 0.546 Q 0 0.308 0.17 0.154 Q 0.324 0.001 0.545 0.001 L 0.571 0.001 Q 2.804 0.112 4.845 1.023 Q 6.885 1.935 8.47 3.529 Q 10.064 5.114 10.976 7.155 Q 11.888 9.196 11.998 11.428 Z " fill="rgb(209,209,209)"/></g></svg>