<?xml version="1.0" standalone="no"?><!-- Generator: Gravit.io --><svg xmlns="http://www.w3.org/2000/svg" xmlns:xlink="http://www.w3.org/1999/xlink" style="isolation:isolate" viewBox="0 0 12 12" width="12" height="12"><defs><clipPath id="_clipPath_v7MRUrVt0O5rXxdRapJ6abmfQTmUIray"><rect width="12" height="12"/></clipPath></defs><g clip-path="url(#_clipPath_v7MRUrVt0O5rXxdRapJ6abmfQTmUIray)"><path d=" M 4.5 4.75 L 4.5 9.25 Q 4.5 9.359 4.43 9.43 Q 4.359 9.5 4.25 9.5 L 3.75 9.5 Q 3.641 9.5 3.57 9.43 Q 3.5 9.359 3.5 9.25 L 3.5 4.75 Q 3.5 4.641 3.57 4.57 Q 3.641 4.5 3.75 4.5 L 4.25 4.5 Q 4.359 4.5 4.43 4.57 Q 4.5 4.641 4.5 4.75 Z  M 6.5 4.75 L 6.5 9.25 Q 6.5 9.359 6.43 9.43 Q 6.359 9.5 6.25 9.5 L 5.75 9.5 Q 5.641 9.5 5.57 9.43 Q 5.5 9.359 5.5 9.25 L 5.5 4.75 Q 5.5 4.641 5.57 4.57 Q 5.641 4.5 5.75 4.5 L 6.25 4.5 Q 6.359 4.5 6.43 4.57 Q 6.5 4.641 6.5 4.75 Z  M 8.5 4.75 L 8.5 9.25 Q 8.5 9.359 8.43 9.43 Q 8.359 9.5 8.25 9.5 L 7.75 9.5 Q 7.641 9.5 7.57 9.43 Q 7.5 9.359 7.5 9.25 L 7.5 4.75 Q 7.5 4.641 7.57 4.57 Q 7.641 4.5 7.75 4.5 L 8.25 4.5 Q 8.359 4.5 8.43 4.57 Q 8.5 4.641 8.5 4.75 Z  M 9.5 10.406 L 9.5 3 L 2.5 3 L 2.5 10.406 Q 2.5 10.578 2.555 10.723 Q 2.609 10.867 2.668 10.934 Q 2.727 11 2.75 11 L 9.25 11 Q 9.273 11 9.332 10.934 Q 9.391 10.868 9.445 10.723 Q 9.5 10.578 9.5 10.406 Z  M 4.25 2 L 7.75 2 L 7.375 1.086 Q 7.32 1.016 7.242 1 L 4.766 1 Q 4.688 1.016 4.633 1.086 L 4.25 2 Z  M 11.5 2.25 L 11.5 2.75 Q 11.5 2.859 11.43 2.93 Q 11.359 3 11.25 3 L 10.5 3 L 10.5 10.406 Q 10.5 11.055 10.133 11.527 Q 9.766 12 9.25 12 L 2.75 12 Q 2.234 12 1.867 11.543 Q 1.5 11.086 1.5 10.438 L 1.5 3 L 0.75 3 Q 0.641 3 0.57 2.93 Q 0.5 2.859 0.5 2.75 L 0.5 2.25 Q 0.5 2.141 0.57 2.07 Q 0.641 2 0.75 2 L 3.164 2 L 3.711 0.695 Q 3.828 0.406 4.133 0.203 Q 4.438 0 4.75 0 L 7.25 0 Q 7.563 0 7.867 0.203 Q 8.172 0.406 8.289 0.695 L 8.836 2 L 11.25 2 Q 11.359 2 11.43 2.07 Q 11.5 2.141 11.5 2.25 L 11.5 2.25 Z " fill="rgb(232,232,232)"/></g></svg>